:SAMPLES-PER-SECOND 30
:FULLY-SPECIFIED
:DEGREES
48
root  55.0614 39.4782 7.41924 148.362 -88.2486 -152.126
RightUpLeg  4.70727 -10.4126 -2.10065
RightLeg  16.1304 -2.84999 3.53584
RightFoot  -15.3238 -0.155304 -1.48018
RightToes  -2.9104e-010 0 -3.6325e-017
Spine  8.11911 0.378283 7.91991
Spine1  10.6336 1.31502 -0.84761
HEad  2.83483 0.448593 -2.38454
LeftShoulder1  7.97028 -12.2209 -44.1288
LeftArm  -6.12992 11.1212 -26.204
LeftForeArm  31.265 -24.0927 -3.57871
LeftHand  -0.244104 0.0205437 5.32207
RightShoulder  4.20468 7.38124 32.6852
RightArm  -3.01712 1.81912 38.6945
RightForeArm  2.43301 37.5237 8.46642
RightHand  -1.71482 4.73885 -19.7512
LeftUpLeg  -21.2112 10.3426 -0.387478
LeftLeg  23.74 3.10797 1.99687
LeftFoot  0.41101 0.48522 -4.75065
LeftToes  -1.62803e-010 -2.57217e-011 -2.5681e-011
49
root  53.6304 39.4681 7.45035 175.536 -87.4484 -179.35
RightUpLeg  8.01117 -10.3892 -3.65674
RightLeg  14.2985 -1.47577 3.79083
RightFoot  -16.1638 -0.147035 -0.924863
RightToes  -2.9104e-010 0 -3.6325e-017
Spine  7.71524 0.653301 7.24053
Spine1  11.2618 1.90908 -2.33733
HEad  2.69413 1.55067 -2.92498
LeftShoulder1  7.86735 -12.1748 -43.6633
LeftArm  -6.23655 13.0434 -25.5551
LeftForeArm  29.0714 -20.0939 -3.60477
LeftHand  -0.244104 0.0205437 5.32207
RightShoulder  4.35778 7.8159 32.5559
RightArm  -1.46517 3.23603 39.3724
RightForeArm  4.07821 37.696 8.4204
RightHand  -1.64802 4.61389 -19.2364
LeftUpLeg  -19.4221 10.6499 -0.72695
LeftLeg  9.77733 3.53268 -0.778394
LeftFoot  1.05905 0.407639 -3.80486
LeftToes  -1.62803e-010 -2.57217e-011 -2.5681e-011
50
root  52.1199 39.3109 7.52672 -175.469 -86.4846 171.327
RightUpLeg  11.1277 -11.0022 -5.35815
RightLeg  13.8323 0.652832 3.8304
RightFoot  -17.5917 -0.0983539 0.374651
RightToes  -2.9104e-010 0 -3.6325e-017
Spine  7.37772 0.697867 6.70389
Spine1  12.0077 2.36891 -3.76806
HEad  2.74422 2.85101 -3.10621
LeftShoulder1  7.66728 -12.082 -42.7542
LeftArm  -7.4927 15.0199 -25.1575
LeftForeArm  29.4516 -15.6998 -4.45206
LeftHand  -0.244104 0.0205437 5.32207
RightShoulder  4.46391 8.21162 32.1618
RightArm  0.266152 4.42325 40.7879
RightForeArm  5.13607 36.5017 8.00284
RightHand  -1.66945 4.76235 -19.2043
LeftUpLeg  -17.2465 2.52859 2.54262
LeftLeg  -0.350647 13.6164 -4.76435
LeftFoot  0.0781511 0.3853 -3.86224
LeftToes  -1.62803e-010 -2.57217e-011 -2.5681e-011
51
root  50.5261 39.0605 7.66264 -172.708 -85.7618 168.304
RightUpLeg  13.5591 -12.0697 -7.02443
RightLeg  14.9142 3.0426 3.51015
RightFoot  -18.8047 -0.0293164 1.51704
RightToes  -2.9104e-010 0 -3.6325e-017
Spine  6.91992 0.615975 6.50041
Spine1  12.5709 2.75196 -5.24724
HEad  3.01785 4.01295 -2.7493
LeftShoulder1  7.39476 -11.875 -41.723
LeftArm  -8.71659 16.4507 -24.7475
LeftForeArm  32.6456 -10.7965 -5.18599
LeftHand  -0.244104 0.0205437 5.32207
RightShoulder  4.37792 8.27622 31.214
RightArm  1.84101 5.00267 43.1617
RightForeArm  6.10656 34.2346 7.30453
RightHand  -1.67567 4.83314 -19.145
LeftUpLeg  -17.1174 2.81247 2.15481
LeftLeg  -2.44853 17.0622 -5.63002
LeftFoot  -1.05308 0.332304 -3.59886
LeftToes  -1.62803e-010 -2.57217e-011 -2.5681e-011
52
root  48.8548 38.7786 7.84243 -168.907 -85.2159 164.208
RightUpLeg  15.4909 -12.8291 -8.77364
RightLeg  17.1914 5.02664 2.82591
RightFoot  -19.5809 0.0751056 2.84296
RightToes  -2.9104e-010 0 -3.6325e-017
Spine  6.48046 0.612696 6.08619
Spine1  12.9865 3.1718 -6.53039
HEad  3.50317 4.77884 -1.76596
LeftShoulder1  7.18771 -11.6554 -41.0988
LeftArm  -8.54403 17.1941 -24.0162
LeftForeArm  36.8065 -6.19905 -5.22312
LeftHand  -0.244104 0.0205437 5.32207
RightShoulder  4.13603 8.02149 29.9176
RightArm  2.7375 4.59241 45.9697
RightForeArm  7.29595 31.6169 6.54325
RightHand  -1.53673 4.26176 -18.5975
LeftUpLeg  -17.9544 3.71968 1.03444
LeftLeg  1.8689 20.054 -4.53739
LeftFoot  0.565291 0.11736 -1.26413
LeftToes  -1.62803e-010 -2.57217e-011 -2.5681e-011
53
root  47.1139 38.4745 8.03069 -162.071 -84.6113 156.598
RightUpLeg  17.1586 -11.7166 -10.5577
RightLeg  20.7725 5.63756 2.23527
RightFoot  -19.9647 0.341551 6.29873
RightToes  -2.9104e-010 0 -3.6325e-017
Spine  6.42657 0.820192 4.85119
Spine1  13.2695 3.60193 -7.28805
HEad  4.29206 5.06844 -0.157311
LeftShoulder1  7.1238 -11.5385 -41.0485
LeftArm  -7.79601 17.8559 -22.8625
LeftForeArm  40.4246 -3.36567 -5.00923
LeftHand  -0.244104 0.0205437 5.32207
RightShoulder  3.92535 7.69945 29.0492
RightArm  2.9364 3.14947 48.2151
RightForeArm  8.25804 29.1667 5.88263
RightHand  -1.34653 3.39095 -17.9234
LeftUpLeg  -18.8035 8.61672 -2.20799
LeftLeg  8.83459 15.5805 -1.3696
LeftFoot  4.48262 -0.339757 2.23499
LeftToes  -1.62803e-010 -2.57217e-011 -2.5681e-011
54
root  45.3882 38.2662 8.2097 -152.877 -83.8853 146.362
RightUpLeg  17.5167 -8.41895 -11.9687
RightLeg  26.4205 3.98653 1.89343
RightFoot  -17.7725 0.508684 11.613
RightToes  -2.9104e-010 0 -3.6325e-017
Spine  6.89719 1.08161 2.85673
Spine1  13.2775 3.93524 -7.88374
HEad  5.46107 4.90514 1.84593
LeftShoulder1  7.09448 -11.4118 -41.2348
LeftArm  -7.45858 18.8738 -21.5445
LeftForeArm  42.064 -2.94183 -4.9156
LeftHand  -0.244104 0.0205437 5.32207
RightShoulder  3.89006 7.55257 29.2067
RightArm  2.96876 0.9701 49.3919
RightForeArm  8.41742 26.7249 5.29251
RightHand  -1.30514 3.16351 -17.8252
LeftUpLeg  -19.2581 15.626 -6.51772
LeftLeg  14.9179 6.38869 1.21777
LeftFoot  6.30629 -0.825722 5.12593
LeftToes  -1.62803e-010 -2.57217e-011 -2.5681e-011
55
root  43.7478 38.2425 8.40626 -145.289 -83.0632 138.074
RightUpLeg  14.8953 -5.62955 -13.0908
RightLeg  35.2584 1.50004 0.836769
RightFoot  -9.94147 -0.227544 14.6597
RightToes  -2.9104e-010 0 -3.6325e-017
Spine  7.56011 1.22623 1.05994
Spine1  12.8734 4.18964 -8.57274
HEad  6.78445 4.38036 3.36257
LeftShoulder1  7.0435 -11.1968 -41.5607
LeftArm  -7.48064 19.8312 -20.5364
LeftForeArm  40.6573 -4.08792 -4.92157
LeftHand  -0.244104 0.0205437 5.32207
RightShoulder  3.96223 7.55805 29.8523
RightArm  3.22568 -1.45059 49.8349
RightForeArm  7.86415 23.8885 4.75345
RightHand  -1.40683 3.63219 -18.2184
LeftUpLeg  -18.5843 17.8862 -8.4301
LeftLeg  19.3678 3.53278 1.85807
LeftFoot  3.85683 -0.857309 6.22138
LeftToes  -1.62803e-010 -2.57217e-011 -2.5681e-011
56
root  42.2423 38.3099 8.62483 -140.735 -82.1003 133.273
RightUpLeg  9.21303 -3.37981 -13.8137
RightLeg  46.0829 -0.941034 -1.3681
RightFoot  2.11552 -1.43053 12.5229
RightToes  -2.9104e-010 0 -3.6325e-017
Spine  8.19457 1.31175 -0.316193
Spine1  12.3974 4.34486 -9.27757
HEad  7.79228 3.95982 3.83283
LeftShoulder1  6.98157 -10.9555 -41.905
LeftArm  -8.10318 20.0016 -20.2103
LeftForeArm  37.1274 -5.49609 -4.89121
LeftHand  -0.244104 0.0205437 5.32207
RightShoulder  4.06019 7.68597 30.3268
RightArm  3.06591 -3.52711 50.0019
RightForeArm  8.01996 20.6321 4.73593
RightHand  -1.43555 3.77331 -18.3027
LeftUpLeg  -16.9596 18.5906 -9.26949
LeftLeg  22.0369 4.00293 2.11526
LeftFoot  -0.331521 -0.547249 5.67374
LeftToes  -1.62803e-010 -2.57217e-011 -2.5681e-011
57
root  40.8693 38.382 8.82779 -137.83 -81.1198 130.096
RightUpLeg  2.72798 -1.48467 -14.2418
RightLeg  55.8341 -1.95547 -3.4988
RightFoot  10.9193 -1.53414 8.07062
RightToes  -2.9104e-010 0 -3.6325e-017
Spine  8.91115 1.40499 -1.78781
Spine1  12.3999 4.28545 -9.49855
HEad  8.20723 3.94559 3.39412
LeftShoulder1  6.99694 -10.8855 -42.222
LeftArm  -9.23351 19.0817 -20.6795
LeftForeArm  33.593 -6.68811 -4.78424
LeftHand  -0.244104 0.0205437 5.32207
RightShoulder  4.14181 7.85256 30.5159
RightArm  1.78056 -4.90149 49.853
RightForeArm  10.3585 17.4117 5.56677
RightHand  -1.31371 3.20263 -17.8606
LeftUpLeg  -14.7755 19.1071 -10.0471
LeftLeg  23.2475 4.32118 2.37019
LeftFoot  -3.46164 -0.31704 4.92632
LeftToes  -1.62803e-010 -2.57217e-011 -2.5681e-011
